<svg width="301" height="166" viewBox="0 0 301 166" fill="none" xmlns="http://www.w3.org/2000/svg">
    <g opacity="0.5">
        <path opacity="0.5"
            d="M72.3169 9.22822C81.0907 10.3736 89.1319 4.18948 90.2772 -4.5844C91.4226 -13.3583 85.2385 -21.3994 76.4646 -22.5448C67.6907 -23.6901 59.6496 -17.506 58.5042 -8.73215C57.3589 0.041722 63.543 8.08285 72.3169 9.22822Z"
            fill="#808080" />
        <path opacity="0.5"
            d="M208.954 27.0651C217.727 28.2105 225.769 22.0264 226.914 13.2525C228.059 4.47864 221.875 -3.56249 213.101 -4.70786C204.327 -5.85323 196.286 0.330883 195.141 9.10476C193.996 17.8786 200.18 25.9198 208.954 27.0651Z"
            fill="#808080" />
        <path opacity="0.5"
            d="M54.477 145.87C63.2509 147.015 71.292 140.831 72.4374 132.057C73.5828 123.283 67.3987 115.242 58.6248 114.097C49.8509 112.951 41.8098 119.136 40.6644 127.909C39.519 136.683 45.7031 144.724 54.477 145.87Z"
            fill="#808080" />
        <path opacity="0.5"
            d="M191.114 163.707C199.888 164.852 207.929 158.668 209.074 149.894C210.219 141.12 204.035 133.079 195.261 131.934C186.488 130.788 178.446 136.972 177.301 145.746C176.156 154.52 182.34 162.561 191.114 163.707Z"
            fill="#808080" />
    </g>
</svg>